<?xml version="1.0" standalone="no"?>
<!DOCTYPE svg PUBLIC "-//W3C//DTD SVG 20010904//EN"
 "http://www.w3.org/TR/2001/REC-SVG-20010904/DTD/svg10.dtd">
<svg version="1.0" xmlns="http://www.w3.org/2000/svg"
 width="1074.000000pt" height="999.000000pt" viewBox="0 0 1074.000000 999.000000"
 preserveAspectRatio="xMidYMid meet">

<g transform="translate(0.000000,999.000000) scale(0.100000,-0.100000)"
fill="#000000" stroke="none">
<path d="M3147 5245 c-835 -1462 -1517 -2659 -1515 -2660 2 -2 197 108 433
244 l430 248 1088 1902 1087 1901 -2 511 -3 510 -1518 -2656z"/>
<path d="M4927 7386 l3 -504 1116 -1913 c613 -1053 1123 -1921 1132 -1930 19
-19 873 -512 877 -507 2 2 -283 494 -633 1093 -350 600 -1053 1805 -1562 2678
-509 873 -927 1587 -930 1587 -3 0 -4 -227 -3 -504z"/>
<path d="M4856 5650 c-187 -322 -503 -857 -703 -1189 -200 -332 -362 -605
-361 -606 2 -1 185 99 408 222 223 122 412 221 420 219 8 -2 508 -269 1110
-594 602 -325 1096 -589 1098 -588 2 2 -123 210 -277 463 l-280 459 -656 353
c-361 195 -658 358 -661 363 -3 5 51 106 120 225 l126 216 -2 521 -3 521 -339
-585z"/>
<path d="M5502 2506 c54 -36 106 -66 115 -66 10 1 33 9 52 19 l34 18 -61 41
c-58 38 -69 42 -150 48 l-87 6 97 -66z"/>
<path d="M3340 2300 l0 -240 80 0 80 0 0 185 0 185 263 -2 262 -3 3 -47 3 -48
-240 0 -241 0 0 -55 0 -55 318 2 317 3 3 148 3 147 -26 10 c-16 6 -188 10
-426 10 l-399 0 0 -240z"/>
<path d="M4335 2515 c-25 -24 -25 -26 -25 -210 0 -181 5 -218 34 -237 6 -4
192 -8 414 -8 l402 0 0 60 0 60 -365 0 -365 0 0 35 0 35 300 0 300 0 0 55 0
55 -297 2 -298 3 -3 28 -3 27 365 0 366 0 0 60 0 60 -400 0 -401 0 -24 -25z"/>
<path d="M5220 2532 c0 -5 72 -58 160 -118 87 -60 159 -112 160 -116 0 -4 -72
-56 -160 -115 -88 -59 -160 -111 -160 -115 0 -5 38 -8 85 -8 l86 0 107 78 c59
43 112 81 118 85 7 4 71 -32 143 -79 l130 -85 88 3 88 3 -172 114 c-95 62
-171 117 -168 121 2 3 78 56 169 116 91 60 166 112 166 117 0 4 -37 7 -82 7
l-81 0 -122 -75 c-67 -41 -128 -77 -137 -80 -11 -4 -59 22 -137 74 l-120 81
-81 0 c-44 0 -80 -4 -80 -8z"/>
<path d="M5870 2298 l1 -53 99 -67 c55 -37 100 -66 100 -64 0 2 -16 37 -35 79
-30 65 -44 82 -92 117 -31 22 -60 40 -65 40 -4 0 -8 -24 -8 -52z"/>
</g>
</svg>
