<?xml version="1.0" standalone="no"?>
<!DOCTYPE svg PUBLIC "-//W3C//DTD SVG 20010904//EN"
 "http://www.w3.org/TR/2001/REC-SVG-20010904/DTD/svg10.dtd">
<svg version="1.0" xmlns="http://www.w3.org/2000/svg"
 width="4475.000000pt" height="4163.000000pt" viewBox="0 0 4475.000000 4163.000000"
 preserveAspectRatio="xMidYMid meet">

<g transform="translate(0.000000,4163.000000) scale(0.100000,-0.100000)"
fill="#000000" stroke="none">
<path d="M15582 26183 c-2117 -3706 -4242 -7426 -4722 -8268 -2824 -4951
-4060 -7125 -4060 -7140 0 -21 647 345 2506 1417 l1091 629 2024 3537 c1112
1945 3152 5512 4532 7927 l2510 4389 -11 2120 c-7 1166 -14 2121 -16 2123 -2
2 -1736 -3028 -3854 -6734z"/>
<path d="M20534 32835 c-3 -26 -5 -970 -2 -2099 l4 -2052 2371 -4064 c1304
-2236 2773 -4756 3265 -5600 1721 -2950 3520 -6017 3704 -6311 16 -26 51 -61
79 -79 290 -193 3212 -1882 3544 -2049 52 -27 63 -29 57 -15 -31 81 -724 1274
-4331 7459 -1569 2690 -3680 6310 -4692 8045 -2635 4517 -3958 6776 -3988
6808 -2 2 -7 -17 -11 -43z"/>
<path d="M21009 24888 c-1530 -2643 -2590 -4441 -3920 -6653 -749 -1245 -1294
-2164 -1287 -2170 5 -5 445 233 1313 710 1014 557 1613 877 1959 1047 l170 82
160 -83 c393 -205 2581 -1376 3956 -2119 2893 -1562 5060 -2722 5084 -2722 10
0 -23 60 -192 346 -352 595 -2094 3458 -2121 3486 -9 9 -709 390 -1556 846
-1637 881 -1828 984 -2690 1455 -720 393 -1215 669 -1243 693 -6 4 103 221
206 409 120 220 265 473 581 1014 l242 415 -11 2165 c-6 1191 -13 2167 -15
2169 -1 2 -287 -489 -636 -1090z"/>
</g>
</svg>
