<?xml version="1.0" standalone="no"?>
<!DOCTYPE svg PUBLIC "-//W3C//DTD SVG 20010904//EN"
 "http://www.w3.org/TR/2001/REC-SVG-20010904/DTD/svg10.dtd">
<svg version="1.0" xmlns="http://www.w3.org/2000/svg"
 width="704.000000pt" height="676.000000pt" viewBox="0 0 704.000000 676.000000"
 preserveAspectRatio="xMidYMid meet">

<g transform="translate(0.000000,676.000000) scale(0.100000,-0.100000)"
fill="#000000" stroke="none">
<path d="M2985 6395 c-5 -2 -23 -6 -38 -9 -41 -10 -115 -82 -127 -125 -21 -76
-4 -149 46 -202 l24 -25 -25 -79 -26 -79 12 -198 c10 -157 10 -204 0 -225 -11
-25 -186 -321 -459 -776 -52 -87 -95 -164 -96 -172 -1 -13 50 -71 469 -545
l208 -235 -124 -6 c-150 -8 -193 -23 -253 -90 l-44 -48 -93 45 c-52 25 -134
65 -184 89 -49 24 -157 75 -239 114 -81 39 -153 71 -158 71 -9 0 -104 -85
-308 -275 -182 -169 -412 -380 -430 -392 -24 -17 -31 -44 -70 -268 -17 -99
-32 -181 -33 -181 -1 -1 -16 -9 -34 -18 -64 -32 -112 -109 -113 -176 0 -40 38
-127 66 -152 59 -52 145 -61 222 -22 118 58 145 206 56 304 l-35 39 26 168
c15 92 30 175 34 184 6 18 637 599 649 599 4 0 149 -69 322 -153 l315 -153 3
-152 3 -152 -43 5 c-24 2 -117 9 -208 15 -91 6 -239 15 -329 22 -157 11 -164
10 -175 -8 -9 -16 -143 -298 -393 -826 l-45 -96 37 -174 c58 -267 56 -241 24
-273 -80 -79 -59 -228 40 -296 28 -20 47 -24 106 -24 93 0 141 29 178 107 l26
53 -5 -100 c-3 -55 -6 -118 -9 -140 -3 -36 5 -51 116 -212 l119 -173 -15 -55
c-20 -78 -2 -145 53 -197 99 -92 253 -65 311 54 62 129 -24 274 -168 283 -42
3 -49 7 -76 47 -17 23 -58 82 -92 130 -94 131 -93 130 -83 239 7 83 17 254 36
635 3 61 9 116 13 123 4 6 138 54 296 105 l289 94 13 -36 c16 -49 81 -106 140
-123 39 -11 197 -14 858 -14 899 0 867 -2 951 66 26 22 52 38 58 36 6 -3 131
-44 277 -91 146 -48 271 -91 278 -95 9 -6 16 -54 22 -152 4 -79 16 -275 25
-435 l17 -291 -64 -94 c-36 -52 -83 -120 -105 -151 -36 -54 -42 -58 -79 -58
-116 -1 -204 -102 -193 -221 11 -113 131 -198 238 -169 118 32 180 151 139
269 -11 30 -7 37 91 184 57 83 110 160 118 170 13 14 14 42 9 165 -5 139 -5
145 9 105 19 -52 80 -108 135 -123 120 -33 249 64 249 186 0 60 -44 140 -91
167 -21 12 -39 27 -39 33 0 7 25 124 56 260 30 137 55 258 56 269 0 11 -41
106 -91 210 -51 105 -149 312 -220 460 l-127 270 -90 -2 c-49 -1 -161 -7 -249
-13 -88 -6 -207 -12 -265 -13 l-105 -2 0 69 0 69 305 148 c168 82 312 148 320
148 11 1 495 -435 638 -573 7 -7 26 -94 43 -193 l30 -180 -35 -37 c-71 -75
-73 -184 -4 -262 57 -64 129 -85 208 -59 78 26 140 110 140 191 0 64 -53 145
-111 170 -26 12 -40 25 -44 43 -7 37 -65 375 -65 383 0 8 -112 116 -221 214
-36 32 -172 157 -302 277 -130 119 -243 217 -251 217 -9 0 -155 -68 -326 -150
-171 -83 -316 -148 -321 -145 -5 4 -9 17 -9 31 0 35 -72 109 -125 130 -24 9
-78 19 -121 23 l-76 6 158 190 c88 105 201 241 253 304 l93 113 -122 304 c-68
169 -120 310 -116 319 6 16 114 194 179 297 42 64 45 96 27 263 l-9 90 39 38
c48 48 64 92 58 163 -9 103 -85 174 -188 174 -117 0 -200 -81 -200 -196 0 -62
39 -132 90 -164 43 -27 45 -32 55 -180 l6 -85 -87 -138 -87 -138 -34 33 c-19
18 -43 52 -53 75 -41 94 -168 97 -207 6 -28 -68 10 -141 84 -160 17 -4 61 -34
96 -65 l65 -58 108 -271 c97 -248 106 -274 93 -294 -8 -12 -126 -157 -264
-323 l-250 -302 -67 0 c-38 0 -68 2 -68 4 0 2 29 67 64 145 42 91 74 150 92
163 101 80 31 231 -96 203 -32 -7 -80 -56 -81 -83 -2 -74 -15 -116 -82 -262
l-75 -165 -128 0 -128 0 -128 203 c-95 151 -128 212 -128 235 0 39 -21 72 -60
92 -62 32 -130 6 -155 -59 -15 -39 -15 -46 0 -83 10 -26 28 -47 49 -58 24 -13
59 -59 129 -170 54 -84 97 -155 97 -159 0 -3 -17 -6 -38 -6 -41 0 11 -55 -621
660 -47 52 -93 105 -104 117 l-19 21 188 319 c103 175 216 368 251 428 36 61
70 115 76 121 7 6 69 37 138 68 93 42 139 58 178 60 40 1 57 8 77 27 52 53 38
151 -26 184 -53 28 -94 17 -145 -40 -29 -32 -191 -112 -203 -100 -3 3 -10 65
-14 138 -9 125 -8 136 15 202 19 58 29 73 56 87 43 22 89 65 108 103 20 38 19
124 -2 170 -34 71 -141 130 -200 110z m74 -110 c58 -29 66 -124 14 -165 -46
-36 -130 -21 -152 27 -44 97 44 187 138 138z m1634 -435 c30 -34 34 -67 12
-110 -50 -97 -190 -59 -190 51 0 92 114 130 178 59z m-1326 -196 c15 -24 15
-29 2 -53 -28 -50 -109 -34 -109 21 0 57 76 79 107 32z m881 -467 c17 -13 15
-62 -4 -81 -37 -38 -97 -7 -92 48 5 48 54 65 96 33z m-1100 -1010 c32 -66 -62
-109 -97 -46 -13 24 -13 29 3 53 24 37 75 33 94 -7z m889 -23 c15 -24 15 -29
2 -53 -16 -29 -61 -40 -85 -20 -17 14 -19 70 -2 87 22 22 66 14 85 -14z m178
-608 c74 -15 147 -76 115 -96 -8 -5 -7 -9 4 -13 14 -6 16 -55 16 -452 l0 -446
-37 -44 c-62 -75 4 -70 -891 -66 -282 1 -521 6 -530 11 -9 5 -25 11 -34 14
-10 3 -31 24 -48 47 l-30 42 0 449 c0 497 -1 487 64 528 19 11 54 23 78 26 23
3 43 6 44 7 7 7 1217 0 1249 -7z m1002 -546 c18 -36 102 -212 188 -391 l156
-327 -61 -269 c-59 -268 -60 -270 -99 -311 -21 -22 -43 -57 -48 -79 -9 -35
-11 -36 -16 -13 -3 14 -13 165 -22 335 -9 171 -18 320 -20 332 -4 18 -51 37
-352 137 -192 64 -353 120 -360 124 -9 6 -10 67 -5 252 l7 245 85 7 c157 14
374 25 445 24 l70 -1 32 -65z m-3013 -35 c133 -8 265 -18 294 -21 l52 -5 0
-164 0 -163 -42 -16 c-24 -9 -189 -65 -368 -125 l-325 -108 -22 -339 c-12
-186 -22 -348 -23 -359 -1 -11 -8 1 -16 27 -16 54 -70 112 -118 128 -31 10
-31 11 -69 177 -21 93 -37 178 -37 190 0 12 38 101 85 198 47 97 85 178 85
179 0 2 45 96 100 210 99 205 100 206 132 206 17 0 140 -7 272 -15z m-1065
-289 c57 -30 68 -110 22 -157 -63 -63 -171 -20 -171 68 0 82 75 127 149 89z
m4952 -85 c23 -23 29 -38 29 -71 0 -80 -76 -123 -150 -85 -91 47 -53 185 50
185 33 0 48 -6 71 -29z m-4473 -871 c110 -67 17 -234 -98 -175 -69 36 -73 135
-6 176 39 24 63 24 104 -1z m3981 -66 c48 -34 59 -104 23 -152 -19 -25 -75
-38 -117 -28 -29 7 -65 59 -65 93 0 79 96 131 159 87z m-3368 -712 c26 -24 32
-36 32 -72 0 -107 -143 -139 -192 -43 -50 98 77 189 160 115z m2780 -63 c50
-35 49 -110 -3 -154 -42 -35 -91 -34 -128 4 -39 39 -46 71 -24 116 30 63 94
77 155 34z"/>
<path d="M2978 3332 c-16 -2 -28 -8 -28 -13 0 -5 -5 -8 -12 -6 -6 1 -14 -12
-18 -29 -9 -42 -62 -145 -77 -151 -7 -3 -13 -16 -13 -28 0 -13 -4 -27 -10 -30
-20 -13 -9 -65 35 -158 25 -53 45 -103 45 -112 0 -8 4 -15 8 -15 14 0 35 -54
23 -58 -5 -2 -1 -12 10 -23 10 -10 19 -26 19 -35 0 -11 5 -14 16 -10 9 4 23 1
30 -5 11 -9 14 -8 14 1 0 8 15 11 43 10 23 -2 58 -2 78 -1 33 1 36 3 35 31 -1
16 -5 30 -11 30 -13 0 -111 188 -107 206 2 8 -2 14 -8 14 -6 0 -20 20 -32 45
l-22 45 22 43 c13 23 28 51 35 62 45 75 98 177 94 181 -6 7 -131 11 -169 6z"/>
<path d="M3273 3332 l-33 -3 0 -330 0 -329 33 0 c17 -1 56 -2 84 -3 50 -2 53
-1 63 27 6 18 7 33 1 39 -5 5 -6 21 -1 36 4 14 4 35 0 46 -7 20 -4 69 6 95 4
13 6 13 14 0 8 -12 10 -11 10 5 0 29 70 95 100 96 14 0 19 3 13 6 -7 2 -13 9
-13 15 0 6 7 8 15 4 9 -3 15 0 15 8 0 7 9 21 21 32 l21 19 -4 -215 -3 -215 89
3 c50 1 91 4 93 6 5 4 6 96 4 394 l-1 262 -94 0 -93 0 -74 -76 c-84 -86 -108
-102 -119 -83 -5 7 -5 22 -1 33 5 12 4 46 -2 76 l-10 55 -51 0 c-28 0 -66 -1
-83 -3z"/>
<path d="M3910 3003 l0 -332 48 -3 c26 -2 69 -1 96 1 l48 3 -7 55 c-4 31 -3
58 2 62 6 3 6 45 1 101 -8 104 -6 120 16 120 20 0 66 -80 62 -105 -2 -11 -1
-14 1 -7 6 16 18 15 33 -3 9 -11 16 -12 31 -2 10 6 19 17 19 24 0 6 17 33 38
60 l37 48 3 127 c3 123 3 127 -17 125 -14 -1 -21 -8 -21 -22 0 -11 -11 -37
-25 -58 -20 -28 -32 -37 -54 -37 -24 0 -35 9 -60 48 -17 27 -31 52 -31 56 0 4
-7 14 -15 22 -8 8 -19 22 -24 31 -7 13 -27 16 -95 17 l-86 2 0 -333z m320 131
c0 -8 -4 -12 -10 -9 -5 3 -10 10 -10 16 0 5 5 9 10 9 6 0 10 -7 10 -16z m-120
-105 c0 -5 -4 -9 -10 -9 -5 0 -10 7 -10 16 0 8 5 12 10 9 6 -3 10 -10 10 -16z"/>
</g>
</svg>
